<?xml version="1.0" encoding="UTF-8"?>
<svg xmlns="http://www.w3.org/2000/svg" viewBox="0 0 720 360" font-family="Helvetica, Arial, sans-serif" font-size="12">
<text x="360" y="22" text-anchor="middle" font-size="14" font-weight="bold">Memory footprint vs session length</text>
<line x1="80" y1="290" x2="560" y2="290" stroke="black" stroke-width="1"/>
<line x1="80" y1="50" x2="80" y2="290" stroke="black" stroke-width="1"/>
<line x1="75" y1="290.0" x2="80" y2="290.0" stroke="black" stroke-width="1"/>
<text x="70" y="294.0" text-anchor="end">0</text>
<line x1="80" y1="290.0" x2="560" y2="290.0" stroke="#dddddd" stroke-width="1" stroke-dasharray="2,2"/>
<line x1="75" y1="50.0" x2="80" y2="50.0" stroke="black" stroke-width="1"/>
<text x="70" y="54.0" text-anchor="end">5</text>
<line x1="80" y1="50.0" x2="560" y2="50.0" stroke="#dddddd" stroke-width="1" stroke-dasharray="2,2"/>
<line x1="80.0" y1="290" x2="80.0" y2="295" stroke="black" stroke-width="1"/>
<text x="80.0" y="308" text-anchor="middle">0</text>
<line x1="160.0" y1="290" x2="160.0" y2="295" stroke="black" stroke-width="1"/>
<text x="160.0" y="308" text-anchor="middle">250</text>
<line x1="240.0" y1="290" x2="240.0" y2="295" stroke="black" stroke-width="1"/>
<text x="240.0" y="308" text-anchor="middle">500</text>
<line x1="320.0" y1="290" x2="320.0" y2="295" stroke="black" stroke-width="1"/>
<text x="320.0" y="308" text-anchor="middle">750</text>
<line x1="400.0" y1="290" x2="400.0" y2="295" stroke="black" stroke-width="1"/>
<text x="400.0" y="308" text-anchor="middle">1000</text>
<line x1="480.0" y1="290" x2="480.0" y2="295" stroke="black" stroke-width="1"/>
<text x="480.0" y="308" text-anchor="middle">1250</text>
<line x1="560.0" y1="290" x2="560.0" y2="295" stroke="black" stroke-width="1"/>
<text x="560.0" y="308" text-anchor="middle">1500</text>
<text x="320" y="335" text-anchor="middle" font-size="13">session length (frames @ 1 fps)</text>
<text x="22" y="170" text-anchor="middle" font-size="13" transform="rotate(-90 22 170)">memory (MB)</text>
<line x1="80" y1="81.9" x2="560" y2="81.9" stroke="#1f77b4" stroke-width="2.5" stroke-dasharray="8,4"/>
<circle cx="446.4" cy="129.0" r="3.5" fill="#d62728" fill-opacity="0.7" stroke="white" stroke-width="0.8"/>
<circle cx="375.4" cy="160.2" r="3.5" fill="#d62728" fill-opacity="0.7" stroke="white" stroke-width="0.8"/>
<circle cx="376.6" cy="159.6" r="3.5" fill="#d62728" fill-opacity="0.7" stroke="white" stroke-width="0.8"/>
<circle cx="364.8" cy="164.8" r="3.5" fill="#d62728" fill-opacity="0.7" stroke="white" stroke-width="0.8"/>
<circle cx="428.5" cy="136.9" r="3.5" fill="#d62728" fill-opacity="0.7" stroke="white" stroke-width="0.8"/>
<circle cx="380.5" cy="158.0" r="3.5" fill="#d62728" fill-opacity="0.7" stroke="white" stroke-width="0.8"/>
<circle cx="400.6" cy="149.1" r="3.5" fill="#d62728" fill-opacity="0.7" stroke="white" stroke-width="0.8"/>
<circle cx="356.5" cy="168.5" r="3.5" fill="#d62728" fill-opacity="0.7" stroke="white" stroke-width="0.8"/>
<circle cx="351.7" cy="170.6" r="3.5" fill="#d62728" fill-opacity="0.7" stroke="white" stroke-width="0.8"/>
<circle cx="442.6" cy="130.7" r="3.5" fill="#d62728" fill-opacity="0.7" stroke="white" stroke-width="0.8"/>
<circle cx="449.0" cy="127.9" r="3.5" fill="#d62728" fill-opacity="0.7" stroke="white" stroke-width="0.8"/>
<circle cx="389.8" cy="153.9" r="3.5" fill="#d62728" fill-opacity="0.7" stroke="white" stroke-width="0.8"/>
<circle cx="395.2" cy="151.5" r="3.5" fill="#d62728" fill-opacity="0.7" stroke="white" stroke-width="0.8"/>
<circle cx="406.1" cy="146.7" r="3.5" fill="#d62728" fill-opacity="0.7" stroke="white" stroke-width="0.8"/>
<circle cx="371.2" cy="162.0" r="3.5" fill="#d62728" fill-opacity="0.7" stroke="white" stroke-width="0.8"/>
<circle cx="422.4" cy="139.5" r="3.5" fill="#d62728" fill-opacity="0.7" stroke="white" stroke-width="0.8"/>
<circle cx="504.0" cy="103.7" r="3.5" fill="#d62728" fill-opacity="0.7" stroke="white" stroke-width="0.8"/>
<circle cx="402.9" cy="148.1" r="3.5" fill="#d62728" fill-opacity="0.7" stroke="white" stroke-width="0.8"/>
<circle cx="319.4" cy="184.8" r="3.5" fill="#d62728" fill-opacity="0.7" stroke="white" stroke-width="0.8"/>
<circle cx="468.8" cy="119.1" r="3.5" fill="#d62728" fill-opacity="0.7" stroke="white" stroke-width="0.8"/>
<circle cx="407.0" cy="146.3" r="3.5" fill="#d62728" fill-opacity="0.7" stroke="white" stroke-width="0.8"/>
<circle cx="378.6" cy="158.8" r="3.5" fill="#d62728" fill-opacity="0.7" stroke="white" stroke-width="0.8"/>
<circle cx="406.1" cy="146.7" r="3.5" fill="#d62728" fill-opacity="0.7" stroke="white" stroke-width="0.8"/>
<circle cx="382.1" cy="157.2" r="3.5" fill="#d62728" fill-opacity="0.7" stroke="white" stroke-width="0.8"/>
<circle cx="413.4" cy="143.5" r="3.5" fill="#d62728" fill-opacity="0.7" stroke="white" stroke-width="0.8"/>
<circle cx="403.8" cy="147.7" r="3.5" fill="#d62728" fill-opacity="0.7" stroke="white" stroke-width="0.8"/>
<circle cx="389.8" cy="153.9" r="3.5" fill="#d62728" fill-opacity="0.7" stroke="white" stroke-width="0.8"/>
<circle cx="415.0" cy="142.8" r="3.5" fill="#d62728" fill-opacity="0.7" stroke="white" stroke-width="0.8"/>
<circle cx="404.2" cy="147.5" r="3.5" fill="#d62728" fill-opacity="0.7" stroke="white" stroke-width="0.8"/>
<circle cx="439.0" cy="132.2" r="3.5" fill="#d62728" fill-opacity="0.7" stroke="white" stroke-width="0.8"/>
<polyline points="80.0,290.0 89.6,285.7 99.5,281.4 109.1,277.1 119.0,272.8 129.0,268.5 138.6,264.2 148.5,259.9 158.1,255.6 168.0,251.3 177.9,247.0 187.5,242.6 197.4,238.3 207.0,234.0 217.0,229.7 226.9,225.4 236.5,221.1 246.4,216.8 256.3,212.5 265.9,208.2 275.8,203.9 285.4,199.6 295.4,195.3 305.3,191.0 314.9,186.7 324.8,182.4 334.4,178.1 344.3,173.8 354.2,169.5 363.8,165.2 373.8,160.9 383.4,156.5 393.3,152.2 403.2,147.9 412.8,143.6 422.7,139.3 432.6,135.0 442.2,130.7 452.2,126.4 461.8,122.1 471.7,117.8 481.6,113.5 491.2,109.2 501.1,104.9 510.7,100.6 520.6,96.3 530.6,92.0 540.2,87.7 550.1,83.4 560.0,79.1" stroke="#d62728" stroke-width="2" fill="none"/>
<text x="580" y="68" font-weight="bold">Method</text>
<line x1="580" y1="86" x2="604" y2="86" stroke="#1f77b4" stroke-width="2.5" stroke-dasharray="8,4"/>
<text x="610" y="90">PSM (bounded)</text>
<text x="610" y="104" font-size="10" fill="#666">~4.3 MB at R=128, 10 cells</text>
<line x1="580" y1="136" x2="604" y2="136" stroke="#d62728" stroke-width="2"/>
<circle cx="592" cy="136" r="3.5" fill="#d62728" fill-opacity="0.7" stroke="white" stroke-width="0.8"/>
<text x="610" y="140">brute-force CLIP</text>
<text x="610" y="154" font-size="10" fill="#666">N × dim × 4 B, growing</text>
<text x="710" y="348" text-anchor="end" font-size="10" fill="#666">30 Nymeria CLIP-L bench JSONs</text>
</svg>