<?xml version="1.0" encoding="UTF-8"?>
<svg xmlns="http://www.w3.org/2000/svg" viewBox="0 0 720 360" font-family="Helvetica, Arial, sans-serif" font-size="12">
<text x="360" y="22" text-anchor="middle" font-size="14" font-weight="bold">Memory footprint vs session length</text>
<line x1="80" y1="290" x2="560" y2="290" stroke="black" stroke-width="1"/>
<line x1="80" y1="50" x2="80" y2="290" stroke="black" stroke-width="1"/>
<line x1="75" y1="290.0" x2="80" y2="290.0" stroke="black" stroke-width="1"/>
<text x="70" y="294.0" text-anchor="end">0</text>
<line x1="80" y1="290.0" x2="560" y2="290.0" stroke="#dddddd" stroke-width="1" stroke-dasharray="2,2"/>
<line x1="75" y1="215.0" x2="80" y2="215.0" stroke="black" stroke-width="1"/>
<text x="70" y="219.0" text-anchor="end">5</text>
<line x1="80" y1="215.0" x2="560" y2="215.0" stroke="#dddddd" stroke-width="1" stroke-dasharray="2,2"/>
<line x1="75" y1="140.0" x2="80" y2="140.0" stroke="black" stroke-width="1"/>
<text x="70" y="144.0" text-anchor="end">10</text>
<line x1="80" y1="140.0" x2="560" y2="140.0" stroke="#dddddd" stroke-width="1" stroke-dasharray="2,2"/>
<line x1="75" y1="65.0" x2="80" y2="65.0" stroke="black" stroke-width="1"/>
<text x="70" y="69.0" text-anchor="end">15</text>
<line x1="80" y1="65.0" x2="560" y2="65.0" stroke="#dddddd" stroke-width="1" stroke-dasharray="2,2"/>
<line x1="80.0" y1="290" x2="80.0" y2="295" stroke="black" stroke-width="1"/>
<text x="80.0" y="308" text-anchor="middle">0</text>
<line x1="160.0" y1="290" x2="160.0" y2="295" stroke="black" stroke-width="1"/>
<text x="160.0" y="308" text-anchor="middle">250</text>
<line x1="240.0" y1="290" x2="240.0" y2="295" stroke="black" stroke-width="1"/>
<text x="240.0" y="308" text-anchor="middle">500</text>
<line x1="320.0" y1="290" x2="320.0" y2="295" stroke="black" stroke-width="1"/>
<text x="320.0" y="308" text-anchor="middle">750</text>
<line x1="400.0" y1="290" x2="400.0" y2="295" stroke="black" stroke-width="1"/>
<text x="400.0" y="308" text-anchor="middle">1000</text>
<line x1="480.0" y1="290" x2="480.0" y2="295" stroke="black" stroke-width="1"/>
<text x="480.0" y="308" text-anchor="middle">1250</text>
<line x1="560.0" y1="290" x2="560.0" y2="295" stroke="black" stroke-width="1"/>
<text x="560.0" y="308" text-anchor="middle">1500</text>
<text x="320" y="335" text-anchor="middle" font-size="13">session length (frames @ 1 fps)</text>
<text x="22" y="170" text-anchor="middle" font-size="13" transform="rotate(-90 22 170)">memory (MB)</text>
<line x1="80" y1="95.0" x2="560" y2="95.0" stroke="#1f77b4" stroke-width="2.5" stroke-dasharray="8,4"/>
<circle cx="446.4" cy="239.7" r="3.5" fill="#d62728" fill-opacity="0.7" stroke="white" stroke-width="0.8"/>
<circle cx="375.4" cy="249.4" r="3.5" fill="#d62728" fill-opacity="0.7" stroke="white" stroke-width="0.8"/>
<circle cx="376.6" cy="249.3" r="3.5" fill="#d62728" fill-opacity="0.7" stroke="white" stroke-width="0.8"/>
<circle cx="364.8" cy="250.9" r="3.5" fill="#d62728" fill-opacity="0.7" stroke="white" stroke-width="0.8"/>
<circle cx="428.5" cy="242.1" r="3.5" fill="#d62728" fill-opacity="0.7" stroke="white" stroke-width="0.8"/>
<circle cx="380.5" cy="248.7" r="3.5" fill="#d62728" fill-opacity="0.7" stroke="white" stroke-width="0.8"/>
<circle cx="400.6" cy="246.0" r="3.5" fill="#d62728" fill-opacity="0.7" stroke="white" stroke-width="0.8"/>
<circle cx="356.5" cy="252.0" r="3.5" fill="#d62728" fill-opacity="0.7" stroke="white" stroke-width="0.8"/>
<circle cx="351.7" cy="252.7" r="3.5" fill="#d62728" fill-opacity="0.7" stroke="white" stroke-width="0.8"/>
<circle cx="442.6" cy="240.2" r="3.5" fill="#d62728" fill-opacity="0.7" stroke="white" stroke-width="0.8"/>
<circle cx="449.0" cy="239.3" r="3.5" fill="#d62728" fill-opacity="0.7" stroke="white" stroke-width="0.8"/>
<circle cx="389.8" cy="247.5" r="3.5" fill="#d62728" fill-opacity="0.7" stroke="white" stroke-width="0.8"/>
<circle cx="395.2" cy="246.7" r="3.5" fill="#d62728" fill-opacity="0.7" stroke="white" stroke-width="0.8"/>
<circle cx="406.1" cy="245.2" r="3.5" fill="#d62728" fill-opacity="0.7" stroke="white" stroke-width="0.8"/>
<circle cx="371.2" cy="250.0" r="3.5" fill="#d62728" fill-opacity="0.7" stroke="white" stroke-width="0.8"/>
<circle cx="422.4" cy="243.0" r="3.5" fill="#d62728" fill-opacity="0.7" stroke="white" stroke-width="0.8"/>
<circle cx="504.0" cy="231.8" r="3.5" fill="#d62728" fill-opacity="0.7" stroke="white" stroke-width="0.8"/>
<circle cx="402.9" cy="245.7" r="3.5" fill="#d62728" fill-opacity="0.7" stroke="white" stroke-width="0.8"/>
<circle cx="319.4" cy="257.1" r="3.5" fill="#d62728" fill-opacity="0.7" stroke="white" stroke-width="0.8"/>
<circle cx="468.8" cy="236.6" r="3.5" fill="#d62728" fill-opacity="0.7" stroke="white" stroke-width="0.8"/>
<circle cx="407.0" cy="245.1" r="3.5" fill="#d62728" fill-opacity="0.7" stroke="white" stroke-width="0.8"/>
<circle cx="378.6" cy="249.0" r="3.5" fill="#d62728" fill-opacity="0.7" stroke="white" stroke-width="0.8"/>
<circle cx="406.1" cy="245.2" r="3.5" fill="#d62728" fill-opacity="0.7" stroke="white" stroke-width="0.8"/>
<circle cx="382.1" cy="248.5" r="3.5" fill="#d62728" fill-opacity="0.7" stroke="white" stroke-width="0.8"/>
<circle cx="413.4" cy="244.2" r="3.5" fill="#d62728" fill-opacity="0.7" stroke="white" stroke-width="0.8"/>
<circle cx="403.8" cy="245.5" r="3.5" fill="#d62728" fill-opacity="0.7" stroke="white" stroke-width="0.8"/>
<circle cx="389.8" cy="247.5" r="3.5" fill="#d62728" fill-opacity="0.7" stroke="white" stroke-width="0.8"/>
<circle cx="415.0" cy="244.0" r="3.5" fill="#d62728" fill-opacity="0.7" stroke="white" stroke-width="0.8"/>
<circle cx="404.2" cy="245.5" r="3.5" fill="#d62728" fill-opacity="0.7" stroke="white" stroke-width="0.8"/>
<circle cx="439.0" cy="240.7" r="3.5" fill="#d62728" fill-opacity="0.7" stroke="white" stroke-width="0.8"/>
<circle cx="333.1" cy="255.2" r="3.5" fill="#ff7f0e" fill-opacity="0.7" stroke="white" stroke-width="0.8"/>
<circle cx="333.1" cy="232.1" r="3.5" fill="#ff7f0e" fill-opacity="0.7" stroke="white" stroke-width="0.8"/>
<polyline points="80.0,290.0 89.6,288.6 99.5,287.3 109.1,285.9 119.0,284.5 129.0,283.2 138.6,281.8 148.5,280.5 158.1,279.1 168.0,277.7 177.9,276.4 187.5,275.0 197.4,273.6 207.0,272.3 217.0,270.9 226.9,269.6 236.5,268.2 246.4,266.8 256.3,265.5 265.9,264.1 275.8,262.7 285.4,261.4 295.4,260.0 305.3,258.7 314.9,257.3 324.8,255.9 334.4,254.6 344.3,253.2 354.2,251.8 363.8,250.5 373.8,249.1 383.4,247.8 393.3,246.4 403.2,245.0 412.8,243.7 422.7,242.3 432.6,240.9 442.2,239.6 452.2,238.2 461.8,236.9 471.7,235.5 481.6,234.1 491.2,232.8 501.1,231.4 510.7,230.0 520.6,228.7 530.6,227.3 540.2,226.0 550.1,224.6 560.0,223.2" stroke="#d62728" stroke-width="2" fill="none"/>
<text x="580" y="68" font-weight="bold">Method</text>
<line x1="580" y1="86" x2="604" y2="86" stroke="#1f77b4" stroke-width="2.5" stroke-dasharray="8,4"/>
<text x="610" y="90">PSM (bounded)</text>
<text x="610" y="104" font-size="10" fill="#666">~13 MB at R=128, 10 cells</text>
<line x1="580" y1="136" x2="604" y2="136" stroke="#d62728" stroke-width="2"/>
<circle cx="592" cy="136" r="3.5" fill="#d62728" fill-opacity="0.7" stroke="white" stroke-width="0.8"/>
<text x="610" y="140">brute-force CLIP</text>
<text x="610" y="154" font-size="10" fill="#666">N × dim × 4 B, growing</text>
<text x="710" y="348" text-anchor="end" font-size="10" fill="#666">32 Nymeria + Aria CLIP-L bench JSONs</text>
</svg>